#N canvas 142 37 750 756 16;
#X msg 89 320 disconnect;
#X floatatom 330 211 5 0 0 0 - - -;
#X msg 332 458 send /first \$1;
#X obj 86 509 sendOSC;
#X msg 51 223 connect localhost 12001;
#X msg 138 43 dsp 0;
#X obj 111 120 send pd;
#X msg 52 43 dsp 1;
#X obj 331 96 adc~;
#X obj 330 173 env~;
#X obj 330 420 expr $f1 + 1;
#X obj 522 449 expr $f1 + 1;
#X obj 537 30 adc~;
#X obj 538 76 fiddle~;
#X floatatom 540 192 5 0 0 0 - - -;
#X floatatom 539 110 5 0 0 0 - - -;
#X floatatom 535 269 5 0 0 0 - - -;
#X obj 540 157 pow 3;
#X obj 535 230 / 10000;
#X floatatom 527 390 5 0 0 0 - - -;
#X obj 538 311 pow 2;
#X obj 534 349 / 10;
#X msg 521 500 send /second \$1;
#X floatatom 330 288 5 0 0 0 - - -;
#X floatatom 331 364 5 0 0 0 - - -;
#X obj 327 128 hip~ 1000;
#X obj 330 248 pow 1.3;
#X connect 0 0 3 0;
#X connect 1 0 26 0;
#X connect 2 0 3 0;
#X connect 4 0 3 0;
#X connect 5 0 6 0;
#X connect 7 0 6 0;
#X connect 8 0 25 0;
#X connect 9 0 1 0;
#X connect 10 0 2 0;
#X connect 11 0 22 0;
#X connect 12 0 13 0;
#X connect 12 1 13 0;
#X connect 13 0 15 0;
#X connect 14 0 18 0;
#X connect 15 0 17 0;
#X connect 16 0 20 0;
#X connect 17 0 14 0;
#X connect 18 0 16 0;
#X connect 19 0 11 0;
#X connect 20 0 21 0;
#X connect 21 0 19 0;
#X connect 22 0 3 0;
#X connect 23 0 24 0;
#X connect 24 0 10 0;
#X connect 25 0 9 0;
#X connect 26 0 23 0;
